<svg xmlns="http://www.w3.org/2000/svg" width="135" height="31.211" viewBox="0 0 135 31.211">
  <g transform="translate(-55.698 -190.491)">
    <g transform="translate(55.698 196.258)">
      <g transform="translate(0 0)">
        <path d="M81.183,217.026a12.746,12.746,0,0,0-25.485.435q0,.389.023.774c.373,6.315,5.276,11.771,11.527,11.917.7.016.792,0,1.2,0s.8,0,1.2,0l6.191-.032.657,0-4.739-5.465a7.912,7.912,0,1,1,3.015-2.428h0l6.391,7.115.027-11.434c0-.147.008-.3.008-.444S81.188,217.17,81.183,217.026Z" transform="translate(-55.698 -204.715)" fill="#005059"/>
        <circle cx="4.858" cy="4.858" r="4.858" transform="translate(7.888 7.864)" fill="#efb607"/>
      </g>
      <path d="M77.338,230.828l4.74,5.465s-.237.008-.657,0c-3.311-.038-17.993-.891-17.639-13.028a10.183,10.183,0,0,1,7.281-9.234s6.8-2.091,10.368,3.4A8.54,8.54,0,0,1,80.353,228.4a7.912,7.912,0,1,0-3.015,2.428Z" transform="translate(-61.286 -210.892)" fill="#00373a"/>
    </g>
    <text transform="translate(88.125 215.491)" font-size="25" font-family="CenturyGothic-Bold, Century Gothic" font-weight="700">
      <tspan x="0" y="0">ayoojon</tspan>
    </text>
  </g>
</svg>